<svg id="Capa_1" data-name="Capa 1" xmlns="http://www.w3.org/2000/svg" viewBox="0 0 321 321"><defs><style>.cls-1{fill:#097fe9;stroke:#0d2337;stroke-width:38px;}.cls-1,.cls-2{stroke-miterlimit:10;}.cls-2{fill:#0d2337;stroke:#fff;stroke-width:21px;}</style></defs><title>Rod&amp;apos;s Designs - Favicon</title><rect class="cls-1" x="19" y="19" width="283" height="283"/><path class="cls-2" d="M91.06,66.09h-.77a16.6,16.6,0,0,0-5-11.48,15.68,15.68,0,0,0-11.48-4.78H70.42V47.25H91.06Zm0,142.93v18.83H70.42v-2.58h3.36a15.63,15.63,0,0,0,11.48-4.77,16.6,16.6,0,0,0,5-11.48Zm16-161.77v180.6H90.29V47.25Zm33,0a62.27,62.27,0,0,1,21,3.36,41.6,41.6,0,0,1,25.8,24.89,55.35,55.35,0,0,1,3.48,20.26,51.44,51.44,0,0,1-5.8,23.73,50.55,50.55,0,0,1-15.74,18.45,37.48,37.48,0,0,1-22.32,7.1q4.4,1.8,9.55,7.35a133.4,133.4,0,0,1,9,10.71q7,10.05,12.26,17.28t10.7,14.19q5.42,7,9.29,11.1a113.76,113.76,0,0,0,10.32,10.06,43.47,43.47,0,0,0,11.22,7,34.1,34.1,0,0,0,13.55,2.58v2.58H218.26q-11.88,0-20.51-3.61a51.34,51.34,0,0,1-14.58-8.9,99.55,99.55,0,0,1-10.06-10.19q-.78-1-4.26-5.93t-8.25-11.74q-4.78-6.84-9.42-13.55t-8-11.48q-3.36-4.77-3.87-5.55A89.07,89.07,0,0,0,128.47,145q-5.93-5.43-12.9-5.42V137q8,.26,13.68,0A80.7,80.7,0,0,0,144,135a36.09,36.09,0,0,0,15-7.48q7-5.67,10.58-17.28a52.93,52.93,0,0,0,1.29-7.1,46.29,46.29,0,0,0,.25-8.38q-.25-17.55-8.9-28T139.05,55.51q-7.23-.51-14.83-.39t-17.93.13a15.75,15.75,0,0,0-.65-2.19c-.43-1.29-1.08-3.23-1.93-5.81ZM106.29,209h.77A15.44,15.44,0,0,0,112,220.5a16.05,16.05,0,0,0,11.61,4.77h3.1v2.58H106.29Z" transform="translate(18.5 18.5)"/></svg>